<?xml version="1.0" encoding="UTF-8"?>
<svg version="1.1" xmlns="http://www.w3.org/2000/svg" width="307" height="310">
<path d="M0 0 C0.92210618 -0.00248975 1.84421236 -0.0049795 2.79426116 -0.0075447 C3.80884203 0.00508478 4.82342291 0.01771425 5.86874866 0.03072643 C7.48355498 0.03300685 7.48355498 0.03300685 9.13098365 0.03533334 C12.75640881 0.04413818 16.3813369 0.07453913 20.00664234 0.10474682 C22.59817989 0.11544956 25.18972319 0.12482788 27.78127003 0.13297558 C33.36999688 0.15264507 38.95857603 0.18335716 44.54720592 0.22153187 C52.62744741 0.27671033 60.70770078 0.31529346 68.78805385 0.34980311 C81.89728603 0.40624189 95.00641069 0.47613522 108.11552906 0.55445385 C120.85117647 0.63051249 133.58683259 0.70025682 146.32256031 0.7614851 C147.10735198 0.76526027 147.89214364 0.76903543 148.70071688 0.772925 C152.63771522 0.79182452 156.57471415 0.81059965 160.51171339 0.82931292 C193.18241931 0.98476372 225.85297318 1.16203478 258.52348804 1.35352612 C258.95738637 9.01714476 259.38375844 16.68115725 259.80522633 24.34546947 C259.94905562 26.94549777 260.09452386 29.54543599 260.24174976 32.14527416 C261.03792594 46.22459376 261.79929005 60.2480412 261.52348804 74.35352612 C259.87348804 74.35352612 258.22348804 74.35352612 256.52348804 74.35352612 C256.34809498 73.73010326 256.17270191 73.10668041 255.9919939 72.46436596 C249.95877063 51.25134186 243.74810177 32.0215725 223.52348804 20.35352612 C210.41356579 13.5712253 196.31825361 11.26637722 181.77348804 10.10352612 C180.77623707 10.02336254 179.77898609 9.94319897 178.75151539 9.86060619 C171.68635665 9.37957649 164.65640713 9.3162732 157.57719898 9.33497143 C156.60781391 9.33631084 155.63842884 9.33765026 154.63966846 9.33903027 C152.26760254 9.34250167 149.89554826 9.34736704 147.52348804 9.35352612 C147.476693 36.86620805 147.44146247 64.37888398 147.4198637 91.89159775 C147.40956687 104.66725084 147.39553705 117.44287916 147.37260914 130.21851635 C147.35262643 141.35840416 147.33976004 152.49827401 147.33531106 163.63817924 C147.33271193 169.53242335 147.3266362 175.42661611 147.31202793 181.3208437 C147.29836682 186.87838257 147.29428253 192.43584936 147.29727268 197.99340343 C147.29672631 200.0237667 147.29280003 202.05413259 147.2850771 204.08448124 C146.7076042 225.9844021 146.7076042 225.9844021 153.52348804 246.35352612 C153.91020679 247.04961987 154.29692554 247.74571362 154.69536304 248.46290112 C159.54691401 256.05415145 167.26878101 259.48908222 175.85942554 261.38868237 C179.73172953 262.16084076 183.61600535 262.7882304 187.52348804 263.35352612 C187.52348804 265.00352612 187.52348804 266.65352612 187.52348804 268.35352612 C180.46584262 268.4986489 173.40813967 268.64069405 166.35039234 268.78077221 C163.95812605 268.82859507 161.56587285 268.87707807 159.17363453 268.92628002 C135.36846282 269.41505162 111.641607 269.31468938 87.83598804 268.85352612 C85.27284007 268.80518626 82.70968904 268.75700807 80.14653492 268.70899487 C73.93881625 268.59236554 67.731138 268.4737543 61.52348804 268.35352612 C61.52348804 266.70352612 61.52348804 265.05352612 61.52348804 263.35352612 C63.19024586 263.11569408 63.19024586 263.11569408 64.89067554 262.87305737 C76.94213734 261.03483665 87.78245476 258.61297557 95.52348804 248.35352612 C105.25494544 231.97173106 102.67410784 209.12394839 102.63701344 190.76710033 C102.63673056 188.77432284 102.63689126 186.78154525 102.63745594 184.78876781 C102.63773998 179.43875532 102.6319074 174.08876578 102.62488198 168.73875856 C102.61858243 163.12541448 102.61803947 157.51206972 102.61685658 151.89872265 C102.61376257 141.29577648 102.60557548 130.69284077 102.59550709 120.08989918 C102.58428563 108.00748815 102.57882037 95.92507658 102.57381165 83.84266162 C102.56339103 59.01294402 102.54582939 34.18323565 102.52348804 9.35352612 C99.3301304 9.3448265 96.13677585 9.33960252 92.94340992 9.33497143 C91.59699421 9.3312402 91.59699421 9.3312402 90.22337818 9.32743359 C83.46372208 9.32009033 76.76132029 9.53329153 70.02348804 10.10352612 C68.98377857 10.19005444 67.9440691 10.27658276 66.87285328 10.36573315 C50.31564405 11.8804744 33.35518944 13.89657993 20.33598804 24.96290112 C18.52348804 26.35352612 18.52348804 26.35352612 16.52348804 26.35352612 C16.25923023 26.93618237 15.99497242 27.51883862 15.72270679 28.11915112 C14.47884705 30.43670086 13.06386532 32.12654982 11.33598804 34.10352612 C2.25378929 45.69701891 -1.15978006 60.29180563 -4.47651196 74.35352612 C-6.45651196 74.35352612 -8.43651196 74.35352612 -10.47651196 74.35352612 C-10.21463546 65.18252622 -9.90666296 56.01343822 -9.56830883 46.84498119 C-9.50514484 45.13065006 -9.44268492 43.41629289 -9.38080883 41.70191479 C-9.17800016 36.11324354 -8.95777805 30.52564167 -8.71741772 24.93845654 C-8.64016592 23.09061704 -8.56793805 21.24256064 -8.50074291 19.39432812 C-8.4046651 16.78229709 -8.29043228 14.17164937 -8.17182446 11.56055737 C-8.14672802 10.77432995 -8.12163158 9.98810253 -8.09577465 9.17805004 C-7.82552118 3.828726 -7.82552118 3.828726 -6.22452515 1.64886063 C-3.99546816 -0.00294295 -2.75930488 -0.01444662 0 0 Z " fill="#B0ADAC" transform="translate(26.47651195526123,21.64647388458252)"/>
<path d="M0 0 C2.97 0.495 2.97 0.495 6 1 C4.625 3 4.625 3 3 5 C2.34 5 1.68 5 1 5 C0.67 3.35 0.34 1.7 0 0 Z " fill="#BFBBBA" transform="translate(42,43)"/>
<path d="M0 0 C0.66 0.66 1.32 1.32 2 2 C-0.97 4.475 -0.97 4.475 -4 7 C-4.66 6.67 -5.32 6.34 -6 6 C-4.02 4.02 -2.04 2.04 0 0 Z " fill="#C9C8C7" transform="translate(121,271)"/>
</svg>
